<svg width="708" height="724" viewBox="0 0 708 724" fill="none" xmlns="http://www.w3.org/2000/svg">
<path d="M434.907 13.0047C436.338 10.0614 434.602 6.55911 431.383 5.97239C409.857 2.04968 387.67 0 365 0C163.416 0 0 162.073 0 362C0 561.927 163.416 724 365 724C443.587 724 516.372 699.368 575.937 657.465C578.047 655.98 578.643 653.122 577.334 650.898L502.205 523.242C500.653 520.605 497.119 519.972 494.692 521.835C459.447 548.887 415.133 565 367 565C252.125 565 159 473.218 159 360C159 248.181 249.838 157.271 362.752 155.042C364.656 155.004 366.403 153.918 367.235 152.205L434.907 13.0047Z" fill="white"/>
<path d="M349.5 464.5L436.558 313.009C437.45 311.457 439.104 310.5 440.893 310.5H615.131C616.908 310.5 618.551 311.443 619.448 312.977L706.535 461.993C707.441 463.543 707.446 465.46 706.549 467.015L618 620.5L531.435 467.043C530.548 465.472 528.884 464.5 527.08 464.5H349.5Z" fill="white"/>
<path d="M613.201 266H452.166L457.645 231.137L543.475 150.619C561.072 134.128 572.749 120.736 578.504 110.443C584.259 100.15 586.417 90.0788 584.979 80.2285C582.654 66.5046 574.741 59.4766 561.238 59.1445C550.613 58.9232 541.704 62.6309 534.51 70.2676C527.426 77.9043 523.11 87.9206 521.561 100.316L474.744 100.482C475.63 85.4303 480.112 71.7617 488.191 59.4766C496.271 47.1914 507.007 37.6732 520.398 30.9219C533.901 24.0599 548.455 20.6842 564.061 20.7949C586.528 21.2376 604.015 27.5462 616.521 39.7207C629.028 51.8952 634.562 68.1094 633.123 88.3633C631.352 111.163 617.905 134.958 592.781 159.75L568.875 182.494L519.402 226.986L619.344 227.318L613.201 266Z" fill="white"/>
</svg>
