<?xml version="1.0" standalone="no"?>
<!DOCTYPE svg PUBLIC "-//W3C//DTD SVG 20010904//EN"
 "http://www.w3.org/TR/2001/REC-SVG-20010904/DTD/svg10.dtd">
<svg version="1.0" xmlns="http://www.w3.org/2000/svg"
 width="296.000000pt" height="379.000000pt" viewBox="0 0 296.000000 379.000000"
 preserveAspectRatio="xMidYMid meet">
<g transform="translate(0.000000,379.000000) scale(0.100000,-0.100000)"
fill="#fff" stroke="none">
<path d="M630 3770 c0 -16 -612 -620 -621 -614 -5 3 -9 -8 -9 -25 0 -16 4 -32
9 -36 11 -6 30 25 25 40 -2 6 135 149 304 318 l308 307 847 -2 c672 -2 847 0
847 10 0 9 -178 12 -855 12 -582 0 -855 -3 -855 -10z"/>
<path d="M1128 3080 c-4 -14 -8 -149 -8 -301 l0 -276 150 -152 c83 -83 150
-146 150 -140 0 7 -62 75 -137 151 l-138 139 -5 302 c-3 166 -8 291 -12 277z"/>
<path d="M0 2257 l0 -753 225 -228 c124 -125 225 -230 225 -233 0 -3 13 -18
30 -33 16 -15 30 -37 30 -49 0 -16 6 -21 25 -21 14 0 25 -4 25 -10 0 -32 29
-60 62 -60 l28 0 0 515 c0 337 3 515 10 515 6 0 10 -12 10 -26 0 -14 4 -23 9
-19 9 5 341 -318 341 -331 0 -3 20 -25 45 -48 25 -24 45 -51 45 -60 0 -9 5
-16 10 -16 7 0 10 -178 10 -513 l0 -514 160 -159 c88 -87 160 -164 160 -171 0
-8 12 -13 30 -13 21 0 30 5 30 16 0 13 6 15 28 9 26 -6 26 -6 7 9 -12 9 -15
15 -7 16 16 0 62 45 62 60 0 5 5 10 11 10 6 0 24 14 41 32 24 26 31 29 39 17
7 -11 9 -8 9 10 0 25 37 64 52 55 4 -3 8 -2 7 3 -4 24 4 33 29 34 15 0 21 3
15 6 -21 8 -15 23 10 23 18 0 19 2 7 10 -12 8 -11 10 8 10 l22 0 0 535 0 536
50 49 c28 28 54 50 59 50 13 0 51 36 51 49 0 6 5 11 10 11 12 0 60 45 60 55 0
8 27 35 35 35 9 0 55 48 54 57 -3 19 2 33 12 33 5 0 7 -6 3 -12 -4 -7 9 2 29
21 20 19 34 38 31 43 -6 9 20 38 35 38 10 0 26 38 19 46 -5 4 -324 -322 -403
-411 l-50 -57 -5 -514 -5 -514 -170 -170 c-93 -93 -177 -170 -185 -170 -8 0
-86 71 -173 158 l-157 157 0 519 0 519 -224 226 c-122 124 -228 236 -235 249
-14 26 -46 29 -55 5 -4 -9 -6 -234 -6 -500 1 -417 -1 -485 -14 -498 -20 -21
-23 -19 -23 11 -1 21 -59 85 -292 318 l-291 292 0 725 c0 551 3 728 12 737 9
9 71 12 217 12 l206 0 510 -510 c281 -280 514 -510 518 -510 5 0 -21 29 -57
65 -36 35 -66 67 -66 70 0 9 -27 35 -37 35 -4 0 -17 12 -28 26 -35 46 -52 64
-64 64 -6 0 -11 4 -11 9 0 5 -50 60 -110 121 -61 61 -108 115 -105 120 3 6 -1
7 -9 4 -11 -4 -16 0 -16 10 0 9 -7 16 -15 16 -9 0 -12 6 -8 17 4 11 3 14 -5 9
-7 -4 -19 -1 -27 8 -17 17 -20 30 -5 21 5 -3 10 -1 10 4 0 6 -9 11 -21 11 -11
0 -17 5 -14 10 3 6 -1 10 -10 10 -20 0 -65 44 -65 65 0 8 -4 15 -10 15 -5 0
-10 7 -10 15 0 9 -6 15 -12 14 -25 -3 -38 1 -38 12 0 5 6 7 13 3 6 -4 -4 11
-23 33 -19 23 -41 42 -47 42 -7 1 -13 6 -13 11 0 12 -45 60 -55 60 -8 0 -35
27 -35 35 0 10 -48 55 -60 55 -5 0 -10 5 -10 11 0 6 -6 17 -14 25 -12 11 -60
14 -255 14 l-241 0 0 -753z"/>
<path d="M2500 3001 c0 -5 -138 -148 -306 -318 -168 -169 -361 -364 -427 -433
-67 -69 74 70 313 308 l436 432 205 0 c146 0 208 -3 217 -12 9 -9 12 -186 12
-736 l0 -724 -137 -145 c-258 -270 -477 -493 -481 -488 -2 2 -3 229 -3 505 2
348 -1 500 -9 495 -7 -4 -10 -172 -10 -521 0 -507 0 -514 20 -514 11 0 20 4
20 9 0 18 323 339 346 345 13 4 24 11 24 17 0 11 45 59 55 59 10 0 35 28 35
39 0 6 5 11 10 11 6 0 10 8 10 17 0 9 3 14 6 10 8 -8 44 25 44 41 0 7 12 25
26 39 21 21 28 23 35 12 7 -9 8 -5 3 14 -4 17 -2 27 5 27 8 0 11 210 11 760
l0 760 -230 0 c-130 0 -230 -4 -230 -9z"/>
</g>
</svg>
